<?xml version="1.0" standalone="yes"?>
<svg xmlns="http://www.w3.org/2000/svg" width="610" height="121">
<path style="fill:#ffffff; stroke:none;" d="M0 0L0 121L370 121L500 121L522 121L556 121L557 121L610 121L610 104L610 0L587 0L574 0L542 0L531 0L459 0L292 0L0 0z"/>
<path style="fill:#f3c0c4; stroke:none;" d="M334 26L334.778 26.7222L335.25 26.75L336.056 26.9444L338 27L337.222 26.2778L336.75 26.25L335.944 26.0556L334 26z"/>
<path style="fill:#e78087; stroke:none;" d="M338 26L338.778 26.7222L339.25 26.75L340.056 26.9444L342 27L341.222 26.2778L340.75 26.25L339.944 26.0556L338 26z"/>
<path style="fill:#f3c0c4; stroke:none;" d="M342 26L342.722 26.7222L343.25 26.75L345 27L344.278 26.2778L343.75 26.25L342 26M494.667 26.3333L495 26.6667L495.333 26.6667L495.333 26.3333L494.667 26.3333z"/>
<path style="fill:#e78087; stroke:none;" d="M496 26L496.778 26.7222L497.306 26.75L498.111 26.9444L499.028 26.9722L500.944 27L501.944 27L504 27L503.222 26.2778L502.694 26.25L501.889 26.0556L500.972 26.0278L499.056 26L498.056 26L496 26z"/>
<path style="fill:#f3bfc3; stroke:none;" d="M115 27L116 28L115 27z"/>
<path style="fill:#e78087; stroke:none;" d="M116 27L117 28L116 27z"/>
<path style="fill:#f3bfc3; stroke:none;" d="M162 27L163 28L162 27z"/>
<path style="fill:#e78087; stroke:none;" d="M163 27L163.778 27.7222L164.306 27.75L165.111 27.9444L166.028 27.9722L168 28L169 28L172 28L191 28L190.222 27.2778L189.694 27.25L188.889 27.0556L187.972 27.0278L186 27L185 27L182 27L163 27z"/>
<path style="fill:#f3c0c4; stroke:none;" d="M191.667 27.3333L192 27.6667L192.333 27.6667L192 27.3333L191.667 27.3333z"/>
<path style="fill:#e78087; stroke:none;" d="M225 27L225.778 27.7222L226.306 27.75L227.111 27.9444L228.028 27.9722L229 28L231 28L233 28L238 28L269 28L268.222 27.2778L267.694 27.25L266.889 27.0556L265.972 27.0278L265 27L263 27L261 27L256 27L225 27M287 27L287.778 27.7222L288.306 27.75L289.111 27.9444L290.028 27.9722L292 28L292.944 28L296 28L295.222 27.2778L294.694 27.25L293.889 27.0556L292.972 27.0278L291 27L290.056 27L287 27z"/>
<path style="fill:#eda0a6; stroke:none;" d="M330 27L331 28L330 27z"/>
<path style="fill:#db404b; stroke:none;" d="M331.667 27.3333L332 27.6667L332.333 27.6667L332.333 27.3333L331.667 27.3333z"/>
<path style="fill:#cf000f; stroke:none;" d="M357 42L358.056 40.5L358.389 39.9444L359.028 38.9444L360.083 37.0556L360.722 35.5L361 34L359.5 32.75L358.944 32.3611L357.944 31.6389L356 30.4167L354 29.4167L353 29.0278L351 28.3889L350 28.1389L349 27.8611L348 27.6389L347 27.3889L345 27.0833L344 27.0278L342 27L340 27L338 27L337 27L335 27.0833L334 27.2222L333 27.3889L331 27.8056L329 28.2222L328 28.4722L326 29.25L325 29.7778L323.028 30.8611L322.083 31.4722L321.222 32.25L319.694 34.0278L318.417 36L317.5 38L317.083 40L317 42L317 43L317 45L317 47L317.028 48L317.111 49L317.639 51L318.722 53L319.417 54L321.083 55.9167L323 57.5278L324 58.1389L326 59.2222L328 60.1389L329 60.5556L330 60.8333L331 61.1389L332 61.3611L334 61.8611L336 62.3611L337 62.6111L339 62.9444L340 63.0556L342 63.3889L343 63.6389L345 64.1389L346 64.3889L348 65.1111L349 65.6389L350.917 67.1111L351.722 68.0278L352.806 70L353 71L352.417 73L350.917 74.9722L349.972 75.8889L349 76.6944L347 77.8889L346 78.2778L345 78.5833L343 78.9167L342 78.9722L340 78.9722L339 78.9167L337 78.5833L336 78.3056L334 77.6111L333 77.1667L332 76.75L331 76.2222L330 75.7778L328 74.7778L326 73.8611L325 73.4722L324 73.2778L322.028 73.3611L321.083 73.7222L320.222 74.3333L319.417 75.1111L318.111 77L317.667 78L317.417 79L317.444 79.9722L317.75 80.9167L318.333 81.7778L320.028 83.3056L321 83.9722L322 84.5833L324 85.5833L326 86.3889L328 87.1667L329 87.5556L331 88.1389L332 88.3611L333 88.6111L335 88.9167L336 88.9722L338 89L339 89L341 89L344 89L345 89L347 88.9722L348 88.9167L350 88.5833L352 88L353 87.6667L355 86.9167L357 85.9167L358.972 84.5833L359.917 83.7778L361.528 81.9722L362.139 81L362.722 80L363.556 78L363.833 77L364.361 75L364.611 74L364.889 72L364.889 71L364.611 69L364.389 68L364.194 67L364 66L363.5 64L362.583 62L361.972 61.0278L360.583 59.2222L359.778 58.4167L358.917 57.6944L357 56.4167L355 55.4167L353 54.6944L352 54.3889L350 53.8611L349 53.6389L348 53.3889L347 53.1944L345 52.8056L344 52.6111L342 52.1389L341 51.8611L340 51.6389L339 51.3611L338 51.1389L337 50.8611L336 50.6111L334 49.9722L332 49.0833L330.111 47.75L328.722 45.9722L328.222 44L328.361 43L328.722 42.0278L329.333 41.0833L331.028 39.5L332 38.9167L334 38.0278L336 37.4167L338 37.0833L340 37.0278L341 37.0833L343 37.4167L344 37.6944L346 38.3889L347 38.8333L348 39.25L349 39.7778L350 40.2222L351 40.75L353 41.5278L353.944 41.75L355.5 41.9722L357 42z"/>
<path style="fill:#e78087; stroke:none;" d="M347.667 27.3333L348 27.6667L348.333 27.6667L348.333 27.3333L347.667 27.3333z"/>
<path style="fill:#f3c0c4; stroke:none;" d="M349 27L350 28L349 27z"/>
<path style="fill:#e78087; stroke:none;" d="M379 27L379.778 27.7222L380.306 27.75L381.111 27.9444L382.028 27.9722L383 28L385 28L387 28L392 28L423 28L422.222 27.2778L421.694 27.25L420.889 27.0556L419.972 27.0278L419 27L417 27L415 27L410 27L379 27M441 27L441.778 27.7222L442.306 27.75L443.111 27.9444L444.028 27.9722L445.944 28L446.944 28L449 28L448.222 27.2778L447.694 27.25L446.889 27.0556L445.972 27.0278L444.056 27L443.056 27L441 27M491 27L492 28L491 27z"/>
<path style="fill:#db404b; stroke:none;" d="M492 27L493 28L492 27z"/>
<path style="fill:#cf000f; stroke:none;" d="M531 88L531 78L520 78L521.5 76.5833L522.028 76.1667L522.972 75.3333L524.611 73.7778L526.139 71.9722L526.833 71L527.528 70L528.583 68L528.972 67L529.583 65L529.778 64L529.917 63L530.083 61L530.222 60L530.528 58L530.528 56L530.361 55L530.083 53L530 52L529.917 51L529.583 49L529.306 48L528.611 46L527.75 44L527.222 43L526.75 42L525.528 40L524 38.0278L522.389 36.2222L521.611 35.3889L519.917 33.8611L518.972 33.1389L518 32.3889L516 31.0278L515 30.4167L514 29.8889L513 29.4167L511 28.6667L510 28.3333L509 28L507 27.4167L505 27.0833L503 27L502 27L500 27L498 27L497 27L495 27.0833L493 27.3889L492 27.6389L491 27.8611L489 28.4444L488 28.8611L487 29.25L486 29.7778L484 30.8333L483 31.3889L481 32.6944L480 33.4167L478.083 35.0833L477.222 36.0278L476.417 37L475 39L474.333 40L473.667 41L472.417 43L471.417 45L471.028 46L470.417 48L470.194 49L469.806 51L469.611 52L469.389 53L469.083 55L469 57L469 58L469.083 60L469.389 62L469.611 63L469.778 64L470.056 66L470.222 67L470.417 68L470.694 69L471.389 71L472.278 73L472.833 74L474.028 76L475.417 77.9722L476.222 78.9167L478.028 80.5833L479 81.3056L481 82.6667L483 83.9167L485 84.9444L487 85.8056L488 86.1667L489 86.5556L490 86.8333L492 87.3611L493 87.6111L495 87.9167L496 87.9722L498 88L500 88L508 88L531 88z"/>
<path style="fill:#e16069; stroke:none;" d="M507 27L508 28L507 27z"/>
<path style="fill:#eda0a6; stroke:none;" d="M508 27L509 28L508 27z"/>
<path style="fill:#f0afb4; stroke:none;" d="M114 28L115 29L114 28z"/>
<path style="fill:#cf000f; stroke:none;" d="M115 28L114 29.5L113.778 30.0556L113.194 31.0556L112.778 32L111.778 34L111.222 35L110.778 36L109.778 38L109.222 39L108.778 40L108.222 41L107.778 42L106.778 44L106.222 45L105.778 46L105.222 47L104.778 48L104.222 49L103.778 50L103.222 51L102.778 52L102.222 53L101.222 55L100.778 56L100.222 57L99.7778 58L99.2222 59L98.7778 60L98.2222 61L97.7778 62L97.2222 63L96.7778 64L96.2222 65L95.7778 66L94.7778 68L94.2222 69L93.7778 70L93.2222 71L92.7778 72L92.2222 73L91.2222 75L90.7778 76L90.2222 77L89.7778 78L89.2222 79L88.7778 80L88.2222 81L87.7778 82L87.25 83L86.4722 84.9444L86.0833 86.5L86 88L97 88L98 86.5L98.2222 85.9444L98.8056 84.9444L99.25 84L100.472 82.0278L101.25 81.0833L103.028 79.5L105 78.5L107 78.0833L108 78.0278L110 78L111 78L114 78L119 78L121 78L123 78L124 78.0278L125 78.0833L127 78.4167L128 78.7222L128.972 79.1111L129.917 79.6389L131.528 81.1111L132.75 83L133.25 84L134.472 85.8889L135.25 86.6667L136.083 87.2778L138 87.8889L140 88L141 88L143 88L147 88L146.722 86.5L146.139 84.9444L145.75 84L145.222 83L144.778 82L144.222 81L143.778 80L143.222 79L142.778 78L141.778 76L141.222 75L140.778 74L140.222 73L139.778 72L139.222 71L138.778 70L138.222 69L137.778 68L137.222 67L136.778 66L136.222 65L135.778 64L135.222 63L134.778 62L134.222 61L133.222 59L132.778 58L132.222 57L131.778 56L131.222 55L130.778 54L130.222 53L129.778 52L129.222 51L128.778 50L128.222 49L127.778 48L127.222 47L126.778 46L126.222 45L125.778 44L125.222 43L124.778 42L124.222 41L123.778 40L123.222 39L122.222 37L121.778 36L121.222 35L120.778 34L120.222 33L119.25 31.0556L118.833 30.0556L118.5 29.5L118 28L115 28z"/>
<path style="fill:#e77f87; stroke:none;" d="M161 28L162 29L161 28z"/>
<path style="fill:#cf000f; stroke:none;" d="M162 28L161 29L161 87L162 88L172 88L172 79L172 77L172.028 75L172.083 74L172.389 72.0556L172.75 70.5L173 69L176.056 69L178 69L179 69L181 69.1111L183 69.7222L184.972 71.1111L186.778 73L187.583 74L189 76L190.389 78L191.861 80L192.639 81L194.139 83L194.861 83.9722L196.389 85.75L197.222 86.5L198.083 87.0556L199.028 87.5L201 87.9167L203 88L204 88L206 88L210 88L209.889 86.5L209.361 84.9444L208.278 83L207.611 82L206.139 80L205.361 79L204.639 78L203.861 77L203.139 76L201.639 74L200.167 72L199.472 71L198.944 70.0556L198.278 68.5L198 67L199.5 66.4722L200.056 66.1111L201.917 64.9722L203.611 63.5833L205.139 61.9167L205.833 60.9722L206.528 60L207.583 58L207.972 57L208.583 55L208.917 53L208.972 52L209 51L209 49L209 47L209 46L208.917 44L208.583 42L207.972 40L207.583 39L206.583 37L205.972 36L204.583 34.0833L202.917 32.4167L201.972 31.6944L200 30.4167L199 29.8889L198 29.4167L196 28.6944L195 28.4167L194 28.2222L193 28.0833L191 28L190 28L188 28L185 28L162 28z"/>
<path style="fill:#e16069; stroke:none;" d="M195 28L196 29L195 28z"/>
<path style="fill:#f0b0b5; stroke:none;" d="M196 28L197 29L196 28z"/>
<path style="fill:#e46f77; stroke:none;" d="M224 28L225 29L224 28z"/>
<path style="fill:#cf000f; stroke:none;" d="M225 28L224 29L224 36L225 37L232 37L234 37L235 37.0278L236 37.0833L238 37.4722L239.944 38.1944L240.5 38.5L242 39L242 88L252 88L253 87L253 51L253 47L253 45L253.028 43L253.111 42L253.333 41L254.333 39.1111L255.111 38.3333L256.028 37.7222L258 37.1111L259 37.0278L261 37L262 37L264 37L270 37L270 28L225 28z"/>
<path style="fill:#e16069; stroke:none;" d="M286 28L287 29L286 28z"/>
<path style="fill:#cf000f; stroke:none;" d="M287 28L286 29L286 87L287 88L296 88L297 87L297 28L287 28z"/>
<path style="fill:#ea9097; stroke:none;" d="M327 28L328 29L327 28z"/>
<path style="fill:#e16069; stroke:none;" d="M351 28L352 29L351 28z"/>
<path style="fill:#f3bfc3; stroke:none;" d="M352 28L353 29L352 28z"/>
<path style="fill:#db404b; stroke:none;" d="M378 28L379 29L378 28z"/>
<path style="fill:#cf000f; stroke:none;" d="M379 28L378 29L378 37L384 37L386 37L387 37L388 37L390 37.0833L391.972 37.5L392.917 37.9444L393.75 38.5L394.5 39.25L395.5 41.0278L395.917 43L396 45L396 46L396 48L396 52L396 88L406 88L406 52L406 48L406 46L406 45L406.083 43L406.5 41.0278L407.5 39.25L408.25 38.5L409.083 37.9444L410.028 37.5L412 37.0833L414 37L415 37L416 37L418 37L424 37L424 29L423 28L379 28z"/>
<path style="fill:#de505a; stroke:none;" d="M423 28L424 29L423 28z"/>
<path style="fill:#cf000f; stroke:none;" d="M440 28L440 88L450 88L451 87L451 29L450 28L440 28z"/>
<path style="fill:#e46f77; stroke:none;" d="M450 28L451 29L450 28z"/>
<path style="fill:#e78087; stroke:none;" d="M488 28L489 29L488 28z"/>
<path style="fill:#de505a; stroke:none;" d="M510 28L511 29L510 28z"/>
<path style="fill:#eda0a6; stroke:none;" d="M511 28L512 29L511 28z"/>
<path style="fill:#e77f87; stroke:none;" d="M118 29L119 30L118 29z"/>
<path style="fill:#e78087; stroke:none;" d="M198 29L199 30L198 29z"/>
<path style="fill:#e77f87; stroke:none;" d="M270 29L270 36L270.722 35.2222L270.75 34.6944L270.944 33.8889L270.972 32.9722L270.944 31.1111L270.75 30.3056L270.722 29.7778L270 29z"/>
<path style="fill:#f3bfc3; stroke:none;" d="M297 29L298 30L297 29z"/>
<path style="fill:#e47078; stroke:none;" d="M325 29L326 30L325 29z"/>
<path style="fill:#eda0a6; stroke:none;" d="M354 29L355 30L354 29z"/>
<path style="fill:#f3bfc3; stroke:none;" d="M377 29L377 36L377.722 35.2222L377.75 34.6944L377.944 33.8889L377.972 32.9722L377.944 31.1111L377.75 30.3056L377.722 29.7778L377 29M424 29L424 36L424.722 35.2222L424.75 34.6944L424.944 33.8889L424.972 32.9722L424.944 31.1111L424.75 30.3056L424.722 29.7778L424 29z"/>
<path style="fill:#e77f87; stroke:none;" d="M439 29L439 86L439.722 85.2222L439.75 84.6944L439.944 83.8889L439.972 82.9722L440 82L440 80L440 79L440 77L440 72L440 42L440 37L440 35L440 33L439.972 32.0278L439.944 31.1111L439.75 30.3056L439.722 29.7778L439 29z"/>
<path style="fill:#e16069; stroke:none;" d="M486 29L487 30L486 29z"/>
<path style="fill:#eda0a6; stroke:none;" d="M513 29L514 30L513 29z"/>
<path style="fill:#ed9fa5; stroke:none;" d="M113 30L114 31L113 30z"/>
<path style="fill:#eda0a6; stroke:none;" d="M200 30L201 31L200 30z"/>
<path style="fill:#f3bfc3; stroke:none;" d="M223 30L223 35L223.722 34.2222L223.75 33.6944L223.917 32.0833L223.75 31.3056L223.722 30.7778L223 30M285 30L285 86L285.722 85.2222L285.75 84.6944L285.944 83.8889L285.972 82.9722L286 82L286 80L286 78L286 73L286 44L286 39L286 37L286 36L286 34L285.972 33.0278L285.944 32.1111L285.75 31.3056L285.722 30.7778L285 30z"/>
<path style="fill:#e77f87; stroke:none;" d="M297 30L297 86L297.722 85.2222L297.75 84.6944L297.944 83.8889L297.972 82.9722L298 82L298 80L298 79L298 77L298 72L298 43L298 38L298 36L298 34L297.972 33.0278L297.944 32.1111L297.75 31.3056L297.722 30.7778L297 30z"/>
<path style="fill:#e78087; stroke:none;" d="M323 30L324 31L323 30z"/>
<path style="fill:#f0afb4; stroke:none;" d="M356 30L357 31L356 30z"/>
<path style="fill:#f3bfc3; stroke:none;" d="M451 30L451 86L451.722 85.2222L451.75 84.6944L451.944 83.8889L451.972 82.9722L452 82L452 80L452 79L452 77L452 72L452 43L452 38L452 36L452 34L451.972 33.0278L451.944 32.1111L451.75 31.3056L451.722 30.7778L451 30z"/>
<path style="fill:#e78087; stroke:none;" d="M484 30L485 31L484 30z"/>
<path style="fill:#f0afb4; stroke:none;" d="M515 30L516 31L515 30z"/>
<path style="fill:#e77f87; stroke:none;" d="M119 31L120 32L119 31z"/>
<path style="fill:#de505a; stroke:none;" d="M201 31L202 32L201 31z"/>
<path style="fill:#db404b; stroke:none;" d="M357 31L358 32L357 31z"/>
<path style="fill:#f0afb4; stroke:none;" d="M482 31L483 32L482 31z"/>
<path style="fill:#db404b; stroke:none;" d="M516 31L517 32L516 31z"/>
<path style="fill:#ed9fa5; stroke:none;" d="M112 32L113 33L112 32z"/>
<path style="fill:#e78087; stroke:none;" d="M359 32L360 33L359 32z"/>
<path style="fill:#e47078; stroke:none;" d="M481 32L482 33L481 32z"/>
<path style="fill:#f0afb4; stroke:none;" d="M518 32L519 33L518 32z"/>
<path style="fill:#e77f87; stroke:none;" d="M120 33L121 34L120 33z"/>
<path style="fill:#e16069; stroke:none;" d="M360 33L361 34L360 33z"/>
<path style="fill:#e47078; stroke:none;" d="M519 33L520 34L519 33z"/>
<path style="fill:#ed9fa5; stroke:none;" d="M111 34L112 35L111 34z"/>
<path style="fill:#db404b; stroke:none;" d="M319 34L320 35L319 34z"/>
<path style="fill:#e16069; stroke:none;" d="M520 34L521 35L520 34z"/>
<path style="fill:#e77f87; stroke:none;" d="M121 35L122 36L121 35z"/>
<path style="fill:#de505a; stroke:none;" d="M205 35L206 36L205 35z"/>
<path style="fill:#ea8f96; stroke:none;" d="M318 35L319 36L318 35z"/>
<path style="fill:#ed9fa5; stroke:none;" d="M110 36L111 37L110 36z"/>
<path style="fill:#ea8f96; stroke:none;" d="M206 36L207 37L206 36z"/>
<path style="fill:#db3f4a; stroke:none;" d="M224 36L225 37L224 36z"/>
<path style="fill:#e15f68; stroke:none;" d="M360 36L361 37L360 36z"/>
<path style="fill:#e16069; stroke:none;" d="M522 36L523 37L522 36z"/>
<path style="fill:#e77f87; stroke:none;" d="M122 37L123 38L122 37z"/>
<path style="fill:#db3f4a; stroke:none;" d="M175 37L175.778 37.7222L176.306 37.75L177.111 37.9444L178.028 37.9722L179 38L181 38L182 38L184 38L190 38L189.222 37.2778L188.694 37.25L187.889 37.0556L186.972 37.0278L186 37L184 37L183 37L181 37L175 37M225 37L225.778 37.7222L226.306 37.75L227.111 37.9444L228.028 37.9722L229 38L231 38L232 38L234 38L239 38L238.222 37.2778L237.694 37.25L236.889 37.0556L235.972 37.0278L235 37L233 37L232 37L230 37L225 37M255 37L255.778 37.7222L256.306 37.75L257.111 37.9444L258.028 37.9722L259 38L261 38L262 38L264 38L269 38L268.222 37.2778L267.694 37.25L266.889 37.0556L265.972 37.0278L265 37L263 37L262 37L260 37L255 37z"/>
<path style="fill:#ea8f96; stroke:none;" d="M317 37L318 38L317 37z"/>
<path style="fill:#db3f4a; stroke:none;" d="M335 37L336 38L335 37z"/>
<path style="fill:#e77f87; stroke:none;" d="M336 37L336.778 37.7222L337.306 37.75L338.111 37.9444L338.972 37.9722L339.944 38L342 38L341.222 37.2778L340.694 37.25L339.889 37.0556L339.028 37.0278L338.056 37L336 37z"/>
<path style="fill:#d82f3b; stroke:none;" d="M342.667 37.3333L343 37.6667L343.333 37.6667L343.333 37.3333L342.667 37.3333z"/>
<path style="fill:#db3f4a; stroke:none;" d="M379 37L379.778 37.7222L380.306 37.75L381.111 37.9444L382.028 37.9722L383 38L385 38L386 38L388 38L393 38L392.222 37.2778L391.694 37.25L390.889 37.0556L389.972 37.0278L389 37L387 37L386 37L384 37L379 37M409 37L409.778 37.7222L410.306 37.75L411.111 37.9444L412.028 37.9722L413 38L415 38L416 38L418 38L423 38L422.222 37.2778L421.694 37.25L420.889 37.0556L419.972 37.0278L419 37L417 37L416 37L414 37L409 37M497 37L497.778 37.7222L498.306 37.75L499.056 37.9444L499.972 37.9722L502 38L501.222 37.2778L500.694 37.25L499.944 37.0556L499.028 37.0278L497 37z"/>
<path style="fill:#e16069; stroke:none;" d="M523 37L524 38L523 37z"/>
<path style="fill:#ed9fa5; stroke:none;" d="M109 38L110 39L109 38z"/>
<path style="fill:#ea8f96; stroke:none;" d="M173 38L174 39L173 38z"/>
<path style="fill:#ffffff; stroke:none;" d="M174 38L173 39L173 58L182 58L185 58L186 58L188 58L190 57.9167L192 57.5L193 57.0556L194.889 55.75L195.667 54.9167L196.306 53.9722L197.111 52L197.583 50L197.694 48L197.361 46L196.833 44L196.528 43L195.5 41.0833L193.917 39.5L192.972 38.9444L192 38.5L190 38.0833L188 38L186 38L185 38L182 38L174 38z"/>
<path style="fill:#ea8f96; stroke:none;" d="M192 38L193 39L192 38z"/>
<path style="fill:#e77f87; stroke:none;" d="M207 38L208 39L207 38z"/>
<path style="fill:#e46f77; stroke:none;" d="M240 38L241 39L240 38z"/>
<path style="fill:#e15f68; stroke:none;" d="M332 38L333 39L332 38z"/>
<path style="fill:#f0afb4; stroke:none;" d="M333 38L334 39L333 38M345 38L346 39L345 38z"/>
<path style="fill:#e15f68; stroke:none;" d="M346 38L347 39L346 38z"/>
<path style="fill:#f3bfc3; stroke:none;" d="M359 38L360 39L359 38z"/>
<path style="fill:#e15f68; stroke:none;" d="M394 38L395 39L394 38M407 38L408 39L407 38z"/>
<path style="fill:#de505a; stroke:none;" d="M475 38L476 39L475 38z"/>
<path style="fill:#ea8f96; stroke:none;" d="M494 38L495 39L494 38z"/>
<path style="fill:#ffffff; stroke:none;" d="M495 38.4722L494 38.8611L492 39.7778L491 40.25L489 41.4722L488 42.25L487 43.0833L485.083 45L483.5 47L482.417 49L482.028 50L481.417 52L481.083 54L481.028 55L481 57L481 58L481 59L481.083 61L481.25 62L481.472 63L481.861 64L482.778 66L483.861 68L484.472 69L486.083 70.9722L487.028 71.9167L489 73.5278L491 74.7222L492 75.1389L493 75.5556L494 75.8333L496 76.3611L498 76.7778L499 76.9167L500 76.9722L502 76.9167L504 76.5833L505 76.3056L507 75.6111L508 75.1667L509 74.7222L511 73.5278L512.972 71.9167L514.75 70L515.528 69L516.722 67L517.611 65L518.306 63L518.583 62L518.778 61L518.972 59L519 57L518.972 56L518.778 54L518.583 53L518.306 52L517.611 50L517.167 49L516.139 47L515.528 46L513.917 44.0278L512.972 43.0833L512 42.25L511 41.4722L510 40.8611L508 39.8333L507 39.3889L506 39.0278L504 38.4167L502 38.0833L501 38.0278L499 38L497 38.0833L495 38.4722z"/>
<path style="fill:#f0afb4; stroke:none;" d="M504 38L505 39L504 38z"/>
<path style="fill:#e46f77; stroke:none;" d="M505 38L506 39L505 38z"/>
<path style="fill:#ed9fa5; stroke:none;" d="M524 38L525 39L524 38z"/>
<path style="fill:#e77f87; stroke:none;" d="M123 39L124 40L123 39z"/>
<path style="fill:#de4f59; stroke:none;" d="M194 39L195 40L194 39z"/>
<path style="fill:#db3f4a; stroke:none;" d="M241 39L241 86L241.722 85.2222L241.75 84.6944L241.944 83.8889L241.972 82.9722L242 81L242 79L242 75L242 50L242 46L242 44L241.972 42.0278L241.944 41.1111L241.75 40.3056L241.722 39.7778L241 39M330 39L331 40L330 39z"/>
<path style="fill:#e77f87; stroke:none;" d="M348 39L349 40L348 39z"/>
<path style="fill:#e46f77; stroke:none;" d="M358 39L359 40L358 39z"/>
<path style="fill:#ea8f96; stroke:none;" d="M474 39L475 40L474 39z"/>
<path style="fill:#db3f4a; stroke:none;" d="M491 39L492 40L491 39z"/>
<path style="fill:#f3bfc3; stroke:none;" d="M492 39L493 40L492 39z"/>
<path style="fill:#ed9fa5; stroke:none;" d="M507 39L508 40L507 39M108 40L109 41L108 40z"/>
<path style="fill:#e77f87; stroke:none;" d="M172 40L172 57L172.722 56.2222L172.75 55.6944L172.944 54.8889L172.972 53.9722L173 52L173 50L173 47L173 45L173 44L172.972 43.0278L172.944 42.1111L172.75 41.3056L172.722 40.7778L172 40z"/>
<path style="fill:#e15f68; stroke:none;" d="M195 40L196 41L195 40z"/>
<path style="fill:#ed9fa5; stroke:none;" d="M208 40L209 41L208 40z"/>
<path style="fill:#e77f87; stroke:none;" d="M316.333 40.6667L316.333 41.3333L316.667 41.3333L316.667 40.6667L316.333 40.6667z"/>
<path style="fill:#e15f68; stroke:none;" d="M329 40L330 41L329 40z"/>
<path style="fill:#ed9fa5; stroke:none;" d="M350 40L351 41L350 40z"/>
<path style="fill:#db3f4a; stroke:none;" d="M395 40L395 87L395.722 86.2222L395.75 85.6944L395.944 84.8889L395.972 83.9722L396 82L396 80L396 76L396 51L396 47L396 45L395.972 43.0278L395.944 42.1111L395.75 41.3056L395.722 40.7778L395 40M406 40L406 87L406.722 86.2222L406.75 85.6944L406.944 84.8889L406.972 83.9722L407 82L407 80L407 76L407 51L407 47L407 45L406.972 43.0278L406.944 42.1111L406.75 41.3056L406.722 40.7778L406 40z"/>
<path style="fill:#f0afb4; stroke:none;" d="M490 40L491 41L490 40z"/>
<path style="fill:#e77f87; stroke:none;" d="M509 40L510 41L509 40M124 41L125 42L124 41z"/>
<path style="fill:#de4f59; stroke:none;" d="M208 41L209 42L208 41z"/>
<path style="fill:#db3f4a; stroke:none;" d="M328 41L329 42L328 41z"/>
<path style="fill:#e77f87; stroke:none;" d="M352 41L353 42L352 41z"/>
<path style="fill:#db404b; stroke:none;" d="M473 41L474 42L473 41z"/>
<path style="fill:#e15f68; stroke:none;" d="M488 41L489 42L488 41z"/>
<path style="fill:#ea8f96; stroke:none;" d="M526 41L527 42L526 41z"/>
<path style="fill:#ed9fa5; stroke:none;" d="M107 42L108 43L107 42z"/>
<path style="fill:#f3bfc3; stroke:none;" d="M196 42L197 43L196 42z"/>
<path style="fill:#db3f4a; stroke:none;" d="M316 42L316 47L316.722 46.2222L316.75 45.6944L316.917 44.9167L316.75 43.3056L316.722 42.7778L316 42z"/>
<path style="fill:#ea8f96; stroke:none;" d="M354.667 42.3333L355 42.6667L355.333 42.6667L355.333 42.3333L354.667 42.3333z"/>
<path style="fill:#f0afb4; stroke:none;" d="M472 42L473 43L472 42z"/>
<path style="fill:#ed9fa5; stroke:none;" d="M487 42L488 43L487 42z"/>
<path style="fill:#de4f59; stroke:none;" d="M512 42L513 43L512 42z"/>
<path style="fill:#e77f87; stroke:none;" d="M125 43L126 44L125 43z"/>
<path style="fill:#f3bfc3; stroke:none;" d="M486 43L487 44L486 43z"/>
<path style="fill:#e15f68; stroke:none;" d="M513 43L514 44L513 43z"/>
<path style="fill:#e77f87; stroke:none;" d="M527 43L528 44L527 43z"/>
<path style="fill:#ed9fa5; stroke:none;" d="M106 44L107 45L106 44z"/>
<path style="fill:#e77f87; stroke:none;" d="M197 44L198 45L197 44M209 44L209 47L209.694 46.25L209.694 45.8056L209.694 44.75L209 44z"/>
<path style="fill:#ed9fa5; stroke:none;" d="M471 44L472 45L471 44z"/>
<path style="fill:#f0afb4; stroke:none;" d="M485 44L486 45L485 44z"/>
<path style="fill:#e15f68; stroke:none;" d="M514 44L515 45L514 44z"/>
<path style="fill:#e77f87; stroke:none;" d="M126 45L127 46L126 45z"/>
<path style="fill:#f9dfe1; stroke:none;" d="M197.333 45.6667L197.333 46.3333L197.667 46.3333L197.667 45.6667L197.333 45.6667z"/>
<path style="fill:#ea8f96; stroke:none;" d="M484 45L485 46L484 45M528 45L529 46L528 45z"/>
<path style="fill:#ed9fa5; stroke:none;" d="M105 46L106 47L105 46z"/>
<path style="fill:#e46f77; stroke:none;" d="M328 46L329 47L328 46z"/>
<path style="fill:#db3f4a; stroke:none;" d="M483 46L484 47L483 46z"/>
<path style="fill:#e77f87; stroke:none;" d="M127 47L128 48L127 47z"/>
<path style="fill:#db3f4a; stroke:none;" d="M209 47L209 50L209.694 49.25L209.694 48.1944L209.694 47.75L209 47z"/>
<path style="fill:#ed9fa5; stroke:none;" d="M316.333 47.6667L316.333 48.3333L316.667 48.3333L316.667 47.6667L316.333 47.6667z"/>
<path style="fill:#e78087; stroke:none;" d="M329 47L330 48L329 47z"/>
<path style="fill:#e46f77; stroke:none;" d="M470 47L471 48L470 47z"/>
<path style="fill:#e77f87; stroke:none;" d="M516 47L517 48L516 47z"/>
<path style="fill:#f3bfc3; stroke:none;" d="M529 47L530 48L529 47z"/>
<path style="fill:#ed9fa5; stroke:none;" d="M104 48L105 49L104 48z"/>
<path style="fill:#db404b; stroke:none;" d="M330 48L331 49L330 48z"/>
<path style="fill:#f3bfc3; stroke:none;" d="M331 48L332 49L331 48z"/>
<path style="fill:#e15f68; stroke:none;" d="M482 48L483 49L482 48z"/>
<path style="fill:#e46f77; stroke:none;" d="M529 48L530 49L529 48z"/>
<path style="fill:#e77f87; stroke:none;" d="M128 49L129 50L128 49z"/>
<path style="fill:#db404b; stroke:none;" d="M332 49L333 50L332 49z"/>
<path style="fill:#eda0a6; stroke:none;" d="M333 49L334 50L333 49z"/>
<path style="fill:#e77f87; stroke:none;" d="M517 49L518 50L517 49z"/>
<path style="fill:#ed9fa5; stroke:none;" d="M103 50L104 51L103 50M197.333 50.6667L197.333 51.3333L197.667 51.3333L197.667 51L197.333 50.6667z"/>
<path style="fill:#e77f87; stroke:none;" d="M209 50L209 53L209.694 52.25L209.694 51.1944L209.694 50.75L209 50z"/>
<path style="fill:#de505a; stroke:none;" d="M335 50L336 51L335 50z"/>
<path style="fill:#ea9097; stroke:none;" d="M336 50L337 51L336 50z"/>
<path style="fill:#ed9fa5; stroke:none;" d="M469 50L470 51L469 50z"/>
<path style="fill:#de4f59; stroke:none;" d="M481 50L482 51L481 50z"/>
<path style="fill:#db3f4a; stroke:none;" d="M116 51L117 52L116 51z"/>
<path style="fill:#e77f87; stroke:none;" d="M129 51L130 52L129 51z"/>
<path style="fill:#f0afb4; stroke:none;" d="M317 51L318 52L317 51z"/>
<path style="fill:#de505a; stroke:none;" d="M339 51L340 52L339 51z"/>
<path style="fill:#ea9097; stroke:none;" d="M340 51L341 52L340 51z"/>
<path style="fill:#db3f4a; stroke:none;" d="M469.333 51.6667L469.333 52.3333L469.667 52.3333L469.667 51.6667L469.333 51.6667z"/>
<path style="fill:#ed9fa5; stroke:none;" d="M481 51L482 52L481 51z"/>
<path style="fill:#e15f68; stroke:none;" d="M518 51L519 52L518 51z"/>
<path style="fill:#e77f87; stroke:none;" d="M530.333 51.6667L530.333 52.3333L530.667 52.3333L530.667 52L530.333 51.6667z"/>
<path style="fill:#ed9fa5; stroke:none;" d="M102 52L103 53L102 52z"/>
<path style="fill:#f0afb4; stroke:none;" d="M115 52L116 53L115 52z"/>
<path style="fill:#ffffff; stroke:none;" d="M116 52L115 53.5L114.778 54.0556L114.194 55.0556L113.222 57L112.778 58L112.222 59L111.778 60L111.222 61L110.778 62L110.25 63L109.472 64.9444L109.083 66.5L109 68L124 68L123.722 66.5L123.139 64.9444L122.75 64L122.222 63L121.778 62L121.222 61L120.778 60L120.222 59L119.778 58L119.25 57L118.361 55.0278L117.972 54.1111L117.417 53.3056L117.167 52.7778L116 52z"/>
<path style="fill:#de4f59; stroke:none;" d="M117 52L118 53L117 52M197 52L198 53L197 52z"/>
<path style="fill:#db3f4a; stroke:none;" d="M318 52L319 53L318 52z"/>
<path style="fill:#db404b; stroke:none;" d="M343 52L344 53L343 52z"/>
<path style="fill:#f0b0b5; stroke:none;" d="M344 52L344.722 52.7222L345.25 52.75L347 53L346.278 52.2778L345.75 52.25L344 52z"/>
<path style="fill:#ed9fa5; stroke:none;" d="M518 52L519 53L518 52z"/>
<path style="fill:#e77f87; stroke:none;" d="M130 53L131 54L130 53z"/>
<path style="fill:#db404b; stroke:none;" d="M348 53L349 54L348 53z"/>
<path style="fill:#e78087; stroke:none;" d="M349 53L350 54L349 53z"/>
<path style="fill:#db3f4a; stroke:none;" d="M530 53L530 56L530.694 55.25L530.694 54.1944L530.694 53.75L530 53z"/>
<path style="fill:#ed9fa5; stroke:none;" d="M101 54L102 55L101 54M114 54L115 55L114 54z"/>
<path style="fill:#db3f4a; stroke:none;" d="M118 54L119 55L118 54z"/>
<path style="fill:#db404b; stroke:none;" d="M196 54L197 55L196 54z"/>
<path style="fill:#ed9fa5; stroke:none;" d="M319 54L320 55L319 54z"/>
<path style="fill:#e16069; stroke:none;" d="M352 54L353 55L352 54z"/>
<path style="fill:#f3bfc3; stroke:none;" d="M353 54L354 55L353 54z"/>
<path style="fill:#db3f4a; stroke:none;" d="M480 54L481 55L480 54z"/>
<path style="fill:#f3bfc3; stroke:none;" d="M118 55L119 56L118 55z"/>
<path style="fill:#e77f87; stroke:none;" d="M131 55L132 56L131 55M195 55L196 56L195 55z"/>
<path style="fill:#e15f68; stroke:none;" d="M208 55L209 56L208 55z"/>
<path style="fill:#e77f87; stroke:none;" d="M320 55L321 56L320 55z"/>
<path style="fill:#eda0a6; stroke:none;" d="M355 55L356 56L355 55z"/>
<path style="fill:#e77f87; stroke:none;" d="M480 55L480 60L480.722 59.2222L480.75 58.6944L480.917 57.0833L480.75 56.3056L480.722 55.7778L480 55z"/>
<path style="fill:#db3f4a; stroke:none;" d="M519 55L519 60L519.722 59.2222L519.75 58.6944L519.917 57.0833L519.75 56.3056L519.722 55.7778L519 55z"/>
<path style="fill:#ed9fa5; stroke:none;" d="M100 56L101 57L100 56M113 56L114 57L113 56z"/>
<path style="fill:#db3f4a; stroke:none;" d="M119 56L120 57L119 56z"/>
<path style="fill:#e78087; stroke:none;" d="M194 56L195 57L194 56z"/>
<path style="fill:#f0afb4; stroke:none;" d="M208 56L209 57L208 56z"/>
<path style="fill:#ed9fa5; stroke:none;" d="M321 56L322 57L321 56z"/>
<path style="fill:#f3bfc3; stroke:none;" d="M357 56L358 57L357 56M468 56L468 59L468.694 58.25L468.694 57.1944L468.694 56.75L468 56M119 57L120 58L119 57z"/>
<path style="fill:#e77f87; stroke:none;" d="M132 57L133 58L132 57z"/>
<path style="fill:#f3bfc3; stroke:none;" d="M192 57L193 58L192 57z"/>
<path style="fill:#db404b; stroke:none;" d="M193 57L194 58L193 57z"/>
<path style="fill:#f0afb4; stroke:none;" d="M322 57L323 58L322 57z"/>
<path style="fill:#e47078; stroke:none;" d="M358 57L359 58L358 57z"/>
<path style="fill:#ed9fa5; stroke:none;" d="M99 58L100 59L99 58M112 58L113 59L112 58z"/>
<path style="fill:#f3c0c4; stroke:none;" d="M174 58L174.778 58.7222L175.306 58.75L176.111 58.9444L177.028 58.9722L178 59L180 59L181 59L183 59L189 59L188.222 58.2778L187.694 58.25L186.889 58.0556L185.972 58.0278L185 58L183 58L182 58L180 58L174 58z"/>
<path style="fill:#e47078; stroke:none;" d="M189.667 58.3333L190 58.6667L190.333 58.6667L190.333 58.3333L189.667 58.3333z"/>
<path style="fill:#ed9fa5; stroke:none;" d="M207 58L208 59L207 58z"/>
<path style="fill:#e77f87; stroke:none;" d="M324 58L325 59L324 58z"/>
<path style="fill:#db3f4a; stroke:none;" d="M530 58L530 61L530.694 60.25L530.694 59.1944L530.694 58.75L530 58z"/>
<path style="fill:#ed9fa5; stroke:none;" d="M120 59L121 60L120 59z"/>
<path style="fill:#e77f87; stroke:none;" d="M133 59L134 60L133 59z"/>
<path style="fill:#e15f68; stroke:none;" d="M326 59L327 60L326 59z"/>
<path style="fill:#ed9fa5; stroke:none;" d="M98 60L99 61L98 60z"/>
<path style="fill:#e77f87; stroke:none;" d="M111 60L112 61L111 60z"/>
<path style="fill:#f3bfc3; stroke:none;" d="M206 60L207 61L206 60z"/>
<path style="fill:#ea8f96; stroke:none;" d="M328 60L329 61L328 60z"/>
<path style="fill:#db404b; stroke:none;" d="M361 60L362 61L361 60z"/>
<path style="fill:#d5202d; stroke:none;" d="M480.333 60.6667L480.333 61.3333L480.667 61.3333L480.667 60.6667L480.333 60.6667z"/>
<path style="fill:#ed9fa5; stroke:none;" d="M121 61L122 62L121 61z"/>
<path style="fill:#e77f87; stroke:none;" d="M134 61L135 62L134 61M205 61L206 62L205 61z"/>
<path style="fill:#ed9fa5; stroke:none;" d="M331 61L332 62L331 61z"/>
<path style="fill:#de4f59; stroke:none;" d="M332 61L333 62L332 61z"/>
<path style="fill:#e77f87; stroke:none;" d="M362 61L363 62L362 61z"/>
<path style="fill:#ed9fa5; stroke:none;" d="M530.333 61.6667L530.333 62.3333L530.667 62.3333L530.667 62L530.333 61.6667M97 62L98 63L97 62z"/>
<path style="fill:#e77f87; stroke:none;" d="M110 62L111 63L110 62z"/>
<path style="fill:#db3f4a; stroke:none;" d="M204 62L205 63L204 62z"/>
<path style="fill:#e77f87; stroke:none;" d="M335.667 62.3333L335.667 62.6667L336.333 62.6667L336.333 62.3333L335.667 62.3333z"/>
<path style="fill:#db3f4a; stroke:none;" d="M469.333 62.6667L469.333 63.3333L469.667 63.3333L469.667 62.6667L469.333 62.6667z"/>
<path style="fill:#ea8f96; stroke:none;" d="M518 62L519 63L518 62M122 63L123 64L122 63z"/>
<path style="fill:#e77f87; stroke:none;" d="M135 63L136 64L135 63z"/>
<path style="fill:#f3bfc3; stroke:none;" d="M340 63L341 64L340 63z"/>
<path style="fill:#de4f59; stroke:none;" d="M341.667 63.3333L341.667 63.6667L342.333 63.6667L342 63.3333L341.667 63.3333z"/>
<path style="fill:#e77f87; stroke:none;" d="M363 63L364 64L363 63z"/>
<path style="fill:#ea8f96; stroke:none;" d="M481 63L482 64L481 63z"/>
<path style="fill:#db404b; stroke:none;" d="M518 63L519 64L518 63z"/>
<path style="fill:#ed9fa5; stroke:none;" d="M96 64L97 65L96 64z"/>
<path style="fill:#e77f87; stroke:none;" d="M109 64L110 65L109 64z"/>
<path style="fill:#de4f59; stroke:none;" d="M202 64L203 65L202 64z"/>
<path style="fill:#ed9fa5; stroke:none;" d="M345 64L346 65L345 64z"/>
<path style="fill:#de4f59; stroke:none;" d="M346 64L347 65L346 64z"/>
<path style="fill:#f0afb4; stroke:none;" d="M469.333 64.6667L469.333 65.3333L469.667 65.3333L469.667 64.6667L469.333 64.6667z"/>
<path style="fill:#e77f87; stroke:none;" d="M123 65L124 66L123 65z"/>
<path style="fill:#e15f68; stroke:none;" d="M136 65L137 66L136 65z"/>
<path style="fill:#e77f87; stroke:none;" d="M201 65L202 66L201 65z"/>
<path style="fill:#ed9fa5; stroke:none;" d="M348 65L349 66L348 65z"/>
<path style="fill:#db3f4a; stroke:none;" d="M349 65L350 66L349 65z"/>
<path style="fill:#f0afb4; stroke:none;" d="M364 65L365 66L364 65z"/>
<path style="fill:#f3bfc3; stroke:none;" d="M482 65L483 66L482 65z"/>
<path style="fill:#e46f77; stroke:none;" d="M517 65L518 66L517 65M529 65L530 66L529 65z"/>
<path style="fill:#ed9fa5; stroke:none;" d="M95 66L96 67L95 66z"/>
<path style="fill:#e77f87; stroke:none;" d="M108.333 66.6667L108.333 67.3333L108.667 67.3333L108.667 67L108.333 66.6667z"/>
<path style="fill:#db3f4a; stroke:none;" d="M199 66L200 67L199 66z"/>
<path style="fill:#ed9fa5; stroke:none;" d="M350 66L351 67L350 66z"/>
<path style="fill:#db3f4a; stroke:none;" d="M364 66L364 69L364.694 68.25L364.694 67.8056L364.694 66.75L364 66z"/>
<path style="fill:#e15f68; stroke:none;" d="M482 66L483 67L482 66z"/>
<path style="fill:#f3bfc3; stroke:none;" d="M529 66L530 67L529 66z"/>
<path style="fill:#e15f68; stroke:none;" d="M137 67L138 68L137 67M198 67L199 68L198 67z"/>
<path style="fill:#f3bfc3; stroke:none;" d="M483 67L484 68L483 67z"/>
<path style="fill:#e46f77; stroke:none;" d="M516 67L517 68L516 67z"/>
<path style="fill:#ed9fa5; stroke:none;" d="M94 68L95 69L94 68z"/>
<path style="fill:#f3c0c4; stroke:none;" d="M109 68L109.778 68.7222L110.306 68.75L111.111 68.9444L112.028 68.9722L113 69L115 69L116 69L118 69L123 69L122.222 68.2778L121.694 68.25L120.889 68.0556L119.972 68.0278L119 68L117 68L116 68L114 68L109 68z"/>
<path style="fill:#de505a; stroke:none;" d="M123 68L124 69L123 68z"/>
<path style="fill:#ed9fa5; stroke:none;" d="M352 68L353 69L352 68z"/>
<path style="fill:#e46f77; stroke:none;" d="M470 68L471 69L470 68z"/>
<path style="fill:#ed9fa5; stroke:none;" d="M528 68L529 69L528 68z"/>
<path style="fill:#e15f68; stroke:none;" d="M138 69L139 70L138 69z"/>
<path style="fill:#de4f59; stroke:none;" d="M173 69L174 70L173 69z"/>
<path style="fill:#e77f87; stroke:none;" d="M183 69L184 70L183 69z"/>
<path style="fill:#ed9fa5; stroke:none;" d="M198 69L199 70L198 69z"/>
<path style="fill:#f0afb4; stroke:none;" d="M470 69L471 70L470 69z"/>
<path style="fill:#e16069; stroke:none;" d="M484 69L485 70L484 69z"/>
<path style="fill:#ed9fa5; stroke:none;" d="M93 70L94 71L93 70z"/>
<path style="fill:#db3f4a; stroke:none;" d="M353.333 70.6667L353.333 71.3333L353.667 71.3333L353.667 70.6667L353.333 70.6667z"/>
<path style="fill:#ed9fa5; stroke:none;" d="M485 70L486 71L485 70z"/>
<path style="fill:#e15f68; stroke:none;" d="M139 71L140 72L139 71z"/>
<path style="fill:#e77f87; stroke:none;" d="M172 71L172 87L172.722 86.2222L172.75 85.6944L172.944 84.8889L172.972 83.9722L173 82L173 81L173 79L173 77L173 76L172.972 74.0278L172.944 73.1111L172.75 72.3056L172.722 71.7778L172 71z"/>
<path style="fill:#db404b; stroke:none;" d="M199 71L200 72L199 71z"/>
<path style="fill:#ea8f96; stroke:none;" d="M471 71L472 72L471 71z"/>
<path style="fill:#ed9fa5; stroke:none;" d="M486 71L487 72L486 71z"/>
<path style="fill:#e16069; stroke:none;" d="M513 71L514 72L513 71z"/>
<path style="fill:#e46f77; stroke:none;" d="M526 71L527 72L526 71z"/>
<path style="fill:#ed9fa5; stroke:none;" d="M92 72L93 73L92 72z"/>
<path style="fill:#f0afb4; stroke:none;" d="M186 72L187 73L186 72z"/>
<path style="fill:#e77f87; stroke:none;" d="M200 72L201 73L200 72z"/>
<path style="fill:#e47078; stroke:none;" d="M321 72L322 73L321 72z"/>
<path style="fill:#de505a; stroke:none;" d="M322.667 72.3333L322.667 72.6667L323.333 72.6667L323.333 72.3333L322.667 72.3333z"/>
<path style="fill:#f3bfc3; stroke:none;" d="M324 72L325 73L324 72z"/>
<path style="fill:#ea9097; stroke:none;" d="M487 72L488 73L487 72z"/>
<path style="fill:#de4f59; stroke:none;" d="M525 72L526 73L525 72z"/>
<path style="fill:#e15f68; stroke:none;" d="M140 73L141 74L140 73M187 73L188 74L187 73z"/>
<path style="fill:#f3bfc3; stroke:none;" d="M201 73L202 74L201 73z"/>
<path style="fill:#e16069; stroke:none;" d="M320 73L321 74L320 73M325 73L326 74L325 73z"/>
<path style="fill:#ed9fa5; stroke:none;" d="M352 73L353 74L352 73z"/>
<path style="fill:#e77f87; stroke:none;" d="M472 73L473 74L472 73z"/>
<path style="fill:#de505a; stroke:none;" d="M488 73L489 74L488 73z"/>
<path style="fill:#ed9fa5; stroke:none;" d="M91 74L92 75L91 74z"/>
<path style="fill:#f0afb4; stroke:none;" d="M319 74L320 75L319 74z"/>
<path style="fill:#e78087; stroke:none;" d="M327 74L328 75L327 74z"/>
<path style="fill:#db3f4a; stroke:none;" d="M364 74L365 75L364 74z"/>
<path style="fill:#eda0a6; stroke:none;" d="M490 74L491 75L490 74z"/>
<path style="fill:#e78087; stroke:none;" d="M509 74L510 75L509 74z"/>
<path style="fill:#e15f68; stroke:none;" d="M141 75L142 76L141 75z"/>
<path style="fill:#db404b; stroke:none;" d="M202 75L203 76L202 75z"/>
<path style="fill:#e78087; stroke:none;" d="M329 75L330 76L329 75z"/>
<path style="fill:#f0afb4; stroke:none;" d="M364.333 75.6667L364.333 76.3333L364.667 76.3333L364.667 75.6667L364.333 75.6667z"/>
<path style="fill:#f3bfc3; stroke:none;" d="M473 75L474 76L473 75z"/>
<path style="fill:#eda0a6; stroke:none;" d="M492 75L493 76L492 75z"/>
<path style="fill:#e78087; stroke:none;" d="M507 75L508 76L507 75z"/>
<path style="fill:#de4f59; stroke:none;" d="M522 75L523 76L522 75z"/>
<path style="fill:#ed9fa5; stroke:none;" d="M90 76L91 77L90 76z"/>
<path style="fill:#e77f87; stroke:none;" d="M189 76L190 77L189 76M203 76L204 77L203 76z"/>
<path style="fill:#de505a; stroke:none;" d="M318 76L319 77L318 76z"/>
<path style="fill:#ea9097; stroke:none;" d="M331 76L332 77L331 76z"/>
<path style="fill:#f3bfc3; stroke:none;" d="M349 76L350 77L349 76z"/>
<path style="fill:#e46f77; stroke:none;" d="M474 76L475 77L474 76z"/>
<path style="fill:#e47078; stroke:none;" d="M494 76L495 77L494 76z"/>
<path style="fill:#f9dfe1; stroke:none;" d="M495.667 76.3333L495.667 76.6667L496.333 76.6667L496.333 76.3333L495.667 76.3333z"/>
<path style="fill:#ea9097; stroke:none;" d="M504 76L505 77L504 76z"/>
<path style="fill:#de505a; stroke:none;" d="M505 76L506 77L505 76z"/>
<path style="fill:#f3c0c4; stroke:none;" d="M521 76L521.361 77.1389L522.333 77.7222L523.111 77.8889L525 78L526.944 78L530 78L529.222 77.2778L528.694 77.25L527.889 77.0556L526.972 77.0278L525 76.9167L523.056 76.5833L521 76z"/>
<path style="fill:#e15f68; stroke:none;" d="M142 77L143 78L142 77z"/>
<path style="fill:#f3bfc3; stroke:none;" d="M204 77L205 78L204 77z"/>
<path style="fill:#f0afb4; stroke:none;" d="M317 77L318 78L317 77z"/>
<path style="fill:#e16069; stroke:none;" d="M333 77L334 78L333 77z"/>
<path style="fill:#f0b0b5; stroke:none;" d="M334 77L335 78L334 77z"/>
<path style="fill:#f3bfc3; stroke:none;" d="M347 77L348 78L347 77z"/>
<path style="fill:#e16069; stroke:none;" d="M348 77L349 78L348 77z"/>
<path style="fill:#db404b; stroke:none;" d="M499.667 77.3333L499.667 77.6667L500.333 77.6667L500.333 77.3333L499.667 77.3333M520 77L521 78L520 77z"/>
<path style="fill:#ed9fa5; stroke:none;" d="M89 78L90 79L89 78z"/>
<path style="fill:#db3f4a; stroke:none;" d="M104 78L104.778 78.7222L105.306 78.75L106.111 78.9444L107.028 78.9722L109 79L110 79L112 79L128 79L127.222 78.2778L126.694 78.25L125.889 78.0556L124.972 78.0278L123 78L122 78L120 78L104 78z"/>
<path style="fill:#db404b; stroke:none;" d="M336 78L337 79L336 78z"/>
<path style="fill:#eda0a6; stroke:none;" d="M337.667 78.3333L337.667 78.6667L338.333 78.6667L338.333 78.3333L337.667 78.3333z"/>
<path style="fill:#f3c0c4; stroke:none;" d="M339 78L339.778 78.7222L340.306 78.75L341.111 78.9444L341.972 78.9722L342.944 79L345 79L344.222 78.2778L343.694 78.25L342.889 78.0556L342.028 78.0278L341.056 78L339 78z"/>
<path style="fill:#e16069; stroke:none;" d="M345 78L346 79L345 78z"/>
<path style="fill:#e15f68; stroke:none;" d="M363 78L364 79L363 78z"/>
<path style="fill:#e77f87; stroke:none;" d="M102 79L103 80L102 79z"/>
<path style="fill:#de4f59; stroke:none;" d="M130 79L131 80L130 79z"/>
<path style="fill:#e15f68; stroke:none;" d="M143 79L144 80L143 79z"/>
<path style="fill:#ed9fa5; stroke:none;" d="M191 79L192 80L191 79z"/>
<path style="fill:#de505a; stroke:none;" d="M205 79L206 80L205 79z"/>
<path style="fill:#f6cfd2; stroke:none;" d="M316.333 79.6667L316.333 80.3333L316.667 80.3333L316.667 79.6667L316.333 79.6667z"/>
<path style="fill:#e8858c; stroke:none;" d="M531 79L531 87L531.722 86.2222L531.75 85.6944L531.944 84.8889L531.972 83.9722L532 83L531.944 81.1111L531.75 80.3056L531.722 79.7778L531 79z"/>
<path style="fill:#ed9fa5; stroke:none;" d="M88 80L89 81L88 80z"/>
<path style="fill:#f3bfc3; stroke:none;" d="M101 80L102 81L101 80z"/>
<path style="fill:#e15f68; stroke:none;" d="M131 80L132 81L131 80M192 80L193 81L192 80z"/>
<path style="fill:#ea8f96; stroke:none;" d="M206 80L207 81L206 80z"/>
<path style="fill:#e15f68; stroke:none;" d="M362 80L363 81L362 80M100 81L101 82L100 81M144 81L145 82L144 81M317 81L318 82L317 81z"/>
<path style="fill:#db3f4a; stroke:none;" d="M479 81L480 82L479 81z"/>
<path style="fill:#ed9fa5; stroke:none;" d="M87 82L88 83L87 82z"/>
<path style="fill:#e77f87; stroke:none;" d="M132 82L133 83L132 82z"/>
<path style="fill:#ed9fa5; stroke:none;" d="M318 82L319 83L318 82z"/>
<path style="fill:#e77f87; stroke:none;" d="M480 82L481 83L480 82z"/>
<path style="fill:#e15f68; stroke:none;" d="M99 83L100 84L99 83M145 83L146 84L145 83z"/>
<path style="fill:#ea8f96; stroke:none;" d="M194 83L195 84L194 83z"/>
<path style="fill:#de505a; stroke:none;" d="M208 83L209 84L208 83z"/>
<path style="fill:#de4f59; stroke:none;" d="M320 83L321 84L320 83z"/>
<path style="fill:#ed9fa5; stroke:none;" d="M360 83L361 84L360 83z"/>
<path style="fill:#f3bfc3; stroke:none;" d="M481 83L482 84L481 83z"/>
<path style="fill:#db3f4a; stroke:none;" d="M482 83L483 84L482 83z"/>
<path style="fill:#e77f87; stroke:none;" d="M86 84L87 85L86 84M133 84L134 85L133 84z"/>
<path style="fill:#de4f59; stroke:none;" d="M195 84L196 85L195 84z"/>
<path style="fill:#ea8f96; stroke:none;" d="M209 84L210 85L209 84z"/>
<path style="fill:#f3bfc3; stroke:none;" d="M321 84L322 85L321 84z"/>
<path style="fill:#ed9fa5; stroke:none;" d="M483 84L484 85L483 84z"/>
<path style="fill:#de4f59; stroke:none;" d="M98 85L99 86L98 85z"/>
<path style="fill:#e15f68; stroke:none;" d="M146 85L147 86L146 85z"/>
<path style="fill:#ea8f96; stroke:none;" d="M323 85L324 86L323 85z"/>
<path style="fill:#de4f59; stroke:none;" d="M357 85L358 86L357 85z"/>
<path style="fill:#f0afb4; stroke:none;" d="M485 85L486 86L485 85z"/>
<path style="fill:#db3f4a; stroke:none;" d="M486 85L487 86L486 85z"/>
<path style="fill:#f4c7ca; stroke:none;" d="M85.3333 86.6667L85.3333 87.3333L85.6667 87.3333L85.6667 86.6667L85.3333 86.6667z"/>
<path style="fill:#ea8f96; stroke:none;" d="M134 86L135 87L134 86z"/>
<path style="fill:#e46f77; stroke:none;" d="M210.333 86.6667L210.333 87L210.667 87.3333L210.667 86.6667L210.333 86.6667z"/>
<path style="fill:#e77f87; stroke:none;" d="M241 86L242 87L241 86z"/>
<path style="fill:#f3bfc3; stroke:none;" d="M297 86L298 87L297 86z"/>
<path style="fill:#ed9fa5; stroke:none;" d="M325 86L326 87L325 86z"/>
<path style="fill:#db3f4a; stroke:none;" d="M326 86L327 87L326 86z"/>
<path style="fill:#f3bfc3; stroke:none;" d="M356 86L357 87L356 86M439 86L440 87L439 86z"/>
<path style="fill:#ea8f96; stroke:none;" d="M488 86L489 87L488 86M135 87L136 88L135 87z"/>
<path style="fill:#ed9fa5; stroke:none;" d="M161 87L162 88L161 87z"/>
<path style="fill:#db3f4a; stroke:none;" d="M198 87L199 88L198 87z"/>
<path style="fill:#f0afb4; stroke:none;" d="M252 87L253 88L252 87z"/>
<path style="fill:#e15f68; stroke:none;" d="M286 87L287 88L286 87z"/>
<path style="fill:#de4f59; stroke:none;" d="M296 87L297 88L296 87z"/>
<path style="fill:#e46f77; stroke:none;" d="M328 87L329 88L328 87z"/>
<path style="fill:#de4f59; stroke:none;" d="M353 87L354 88L353 87z"/>
<path style="fill:#f0afb4; stroke:none;" d="M354 87L355 88L354 87z"/>
<path style="fill:#e46f77; stroke:none;" d="M450 87L451 88L450 87M491.667 87.3333L491.667 87.6667L492.333 87.6667L492.333 87.3333L491.667 87.3333z"/>
<path style="fill:#f2babe; stroke:none;" d="M531 87L532 88L531 87z"/>
<path style="fill:#e77f87; stroke:none;" d="M86 88L86.7778 88.7222L87.3056 88.75L88.1111 88.9444L89.0278 88.9722L91 89L91.9444 89L95 89L94.2222 88.2778L93.6944 88.25L92.8889 88.0556L91.9722 88.0278L90 88L89.0556 88L86 88z"/>
<path style="fill:#f3bfc3; stroke:none;" d="M95 88L96 89L95 88z"/>
<path style="fill:#e77f87; stroke:none;" d="M137 88L137.778 88.7222L138.306 88.75L139.111 88.9444L140.028 88.9722L142 89L142.944 89L146 89L145.222 88.2778L144.694 88.25L143.889 88.0556L142.972 88.0278L141 88L140.056 88L137 88M163 88L163.778 88.7222L164.306 88.75L165.111 88.9444L166.028 88.9722L167.944 89L168.944 89L171 89L170.222 88.2778L169.694 88.25L168.889 88.0556L167.972 88.0278L166.056 88L165.056 88L163 88M200 88L200.778 88.7222L201.306 88.75L202.111 88.9444L203.028 88.9722L205 89L206.944 89L210 89L209.222 88.2778L208.694 88.25L207.889 88.0556L206.972 88.0278L205 88L203.056 88L200 88M243 88L243.778 88.7222L244.306 88.75L245.111 88.9444L246.028 88.9722L247.944 89L248.944 89L251 89L250.222 88.2778L249.694 88.25L248.889 88.0556L247.972 88.0278L246.056 88L245.056 88L243 88z"/>
<path style="fill:#f3bfc3; stroke:none;" d="M287 88L288 89L287 88z"/>
<path style="fill:#e77f87; stroke:none;" d="M288 88L288.778 88.7222L289.306 88.75L290.111 88.9444L291.028 88.9722L291.944 89L292.944 89L295 89L294.222 88.2778L293.694 88.25L292.889 88.0556L291.972 88.0278L291.056 88L290.056 88L288 88z"/>
<path style="fill:#f3bfc3; stroke:none;" d="M295 88L296 89L295 88z"/>
<path style="fill:#ed9fa5; stroke:none;" d="M331 88L332 89L331 88z"/>
<path style="fill:#e15f68; stroke:none;" d="M332 88L333 89L332 88M350 88L351 89L350 88z"/>
<path style="fill:#ed9fa5; stroke:none;" d="M351 88L352 89L351 88z"/>
<path style="fill:#e77f87; stroke:none;" d="M397 88L397.778 88.7222L398.306 88.75L399.111 88.9444L400.028 88.9722L401.944 89L402.944 89L405 89L404.222 88.2778L403.694 88.25L402.889 88.0556L401.972 88.0278L400.056 88L399.056 88L397 88M441 88L441.778 88.7222L442.306 88.75L443.111 88.9444L444.028 88.9722L445.944 89L446.944 89L449 89L448.222 88.2778L447.694 88.25L446.889 88.0556L445.972 88.0278L444.056 88L443.056 88L441 88z"/>
<path style="fill:#f3bfc3; stroke:none;" d="M496.667 88.3333L497 88.6667L497.333 88.6667L497.333 88.3333L496.667 88.3333z"/>
<path style="fill:#e77f87; stroke:none;" d="M498 88L498.778 88.7222L499.306 88.75L500.111 88.9444L501.028 88.9722L503 89L505 89L508 89L531 89L530.222 88.2778L529.694 88.25L528.889 88.0556L527.972 88.0278L526 88L524 88L521 88L498 88z"/>
<path style="fill:#f5cccf; stroke:none;" d="M335 89L335.778 89.7222L336.306 89.75L337.111 89.9444L338.028 89.9722L340 90L342 90L346 90L345.222 89.2778L344.694 89.25L343.889 89.0556L342.972 89.0278L341 89L339 89L335 89z"/>
</svg>
